<?xml version="1.0" encoding="utf-8"?>
<!-- Generator: Adobe Illustrator 23.0.6, SVG Export Plug-In . SVG Version: 6.00 Build 0)  -->
<svg version="1.1" id="Ebene_1" xmlns="http://www.w3.org/2000/svg" xmlns:xlink="http://www.w3.org/1999/xlink" x="0px" y="0px"
	 width="17px" height="18.3px" viewBox="0 0 17 18.3" style="enable-background:new 0 0 17 18.3;" xml:space="preserve">
<style type="text/css">
	.st0{font-family:'HDADINOfficeBold';}
	.st1{font-size:5.8659px;}
	.st2{fill:#E805E3;stroke:#E805E3;stroke-miterlimit:10;}
	.st3{fill:none;stroke:#E805E3;stroke-miterlimit:10;}
	.st4{fill:#FFFFFF;}
	.st5{font-size:6.2937px;}
</style>
<title>ext_icon</title>
<text transform="matrix(1 0 0 1 1.6757 6.0996)" class="st0 st1">T</text>
<text transform="matrix(1 0 0 1 4.9757 5.3996)" class="st0 st1">3</text>
<text transform="matrix(1 0 0 1 8.0757 6.0996)" class="st0 st1">UP</text>
<path class="st2" d="M0.5,14.4c0,1.1,0.9,2.1,2,2.1l0,0h11.9c1.1,0,2.1-0.9,2.1-2.1l0,0V7.6h-16C0.5,7.6,0.5,14.5,0.5,14.4z"/>
<path class="st3" d="M16.5,2.5c0-1.1-0.9-2-2.1-2l0,0H2.5c-1.1,0-2,0.9-2,2v6.8h16V2.5z"/>
<text transform="matrix(1 0 0 1 2.3621 13.8083)" class="st4 st0 st5">ONE</text>
</svg>
